<svg version="1.1" id="Layer_1" xmlns="http://www.w3.org/2000/svg" x="0" y="0" viewBox="0 0 419.6 244.6" xml:space="preserve" fill="#fff"><path d="M418.1 119.5l-56.3-56.3C321.1 22.4 266.9 0 209.1 0S97.1 22.4 56.4 63.2L1.5 118.1c-1 .9-1.5 2.2-1.5 3.5 0 1.3.5 2.6 1.5 3.5l56.3 56.3c40.7 40.7 95 63.2 152.7 63.2 57.8 0 112-22.4 152.7-63.2l54.9-54.9c.9-.9 1.5-2.2 1.5-3.5s-.5-2.6-1.5-3.5zM74.6 164.6l-43-43L73.3 80c36.2-36.2 84.5-56.2 135.9-56.2S308.7 43.8 345 80l43 43-41.6 41.6c-36.2 36.2-84.5 56.2-135.9 56.2-51.4 0-99.6-20-135.9-56.2z"/><path d="M204.5 76.3c-22.5 0-40.7 18.3-40.7 40.7 0 5.6 4.5 10.1 10.1 10.1S184 122.6 184 117c0-11.3 9.2-20.5 20.5-20.5 5.6 0 10.1-4.5 10.1-10.1s-4.5-10.1-10.1-10.1z"/><path d="M209.6 41c-44.7 0-81.1 36.4-81.1 81.1s36.4 81.1 81.1 81.1 81.1-36.4 81.1-81.1c0-44.7-36.4-81.1-81.1-81.1zm0 140.5c-32.8 0-59.4-26.6-59.4-59.4s26.6-59.4 59.4-59.4S269 89.4 269 122.1c0 32.8-26.6 59.4-59.4 59.4z"/></svg>