<svg version="1.1" id="Isolation_Mode" xmlns="http://www.w3.org/2000/svg" x="0" y="0" viewBox="0 0 419.6 284.2" xml:space="preserve" fill="#fff"><path d="M174.8 284.2c-6.6 0-13.3-2.2-20.2-6.6-2.5-1.6-4-4.4-3.9-7.4.1-2.9 1.6-5.4 4.1-6.8 1.4-.8 2.7-1.5 4-2.1 4.3-2.2 8-4.1 10.7-7.3 3.5-4.1 6.4-9.2 8.3-14.5 3.8-10.6 5.9-22.6 6.3-36.6.1-5.1.1-10.4.1-15.5v-5.8c0-2.4-.1-4.8-.1-7.3-.1-4.8-.3-9.7.1-14.5.3-2.7.6-5.4 1-8 .6-4.3 1.2-8.4 1.2-12.5 0-7.3-.6-13.9-2-20.1-.8-3.4-1.8-6.8-3-10.4-2.7-8.7-5.5-17.6-4.3-27.1.9-7.4 1.3-15.9-2.5-23.1-2.4-4.5-5.6-8.2-9.2-10.6-3.1-2.1-7.3-2.6-12.1-3.2-1-.1-2.1-.3-3.1-.4l-2.3-.3c-5.5-.8-11.3-1.5-16.9-2.9-2.5-.6-5-1.3-7.4-2.1-3.3-1-6.5-1.9-9.7-2.5-8.8-1.6-17.7-1.8-27-2-3.4-.1-6.8-.1-10.3-.3-3.3-.1-6.6-.5-9.7-.8-2.8-.3-5.5-.6-8.1-.7-.6 0-1.3-.1-2-.1-3.5 0-5.8.7-7.3 2.2-2.4 2.5-5.2 4.8-9.2 4.8-2.1 0-4.1-.6-6.2-1.9-1.6-1-3-2.3-4-3.9H8.5c-3.9 0-7.4-2.8-8-6.5 0-.2-.1-.4-.1-.6-.4-1.9-1.2-5.9 2-9l.7-.7c1.4-1.5 3.4-3.6 6.4-4.4C32.5 6 58 2.5 85.2 2.4h2.5c13 0 26.1.4 38.8.8 12.2.4 24.7.8 37.1.8 2.8 0 5.5 0 8.3.1 3 0 6.1.1 9.1.1 6.1 0 14.1-.2 21.8-1.3l1.6-.2c8.8-1.3 17.9-2.7 27-2.7 3.5 0 6.8.2 10 .6 12.4 1.5 24.4 4.7 36.6 8 3.2.9 6.4 1.7 9.6 2.6 8.5 2.2 17.2 4.5 25.5 7.6 17.7 6.6 31.5 19.6 38.8 36.3 3.6 8.1 5.7 16.7 7.7 24.9.6 2.3 1.1 4.6 1.7 6.9 3.3 12.6 6.9 25.3 10.6 37.8.6 1.9 1.1 3.8 1.6 5.7 1.3 4.4 2.6 9.1 4.2 13.3 1.2 3 2.8 5.9 4.6 9 .9 1.5 1.8 3.1 2.7 4.8 5 9.3 7.4 19.7 9.7 29.7l1.5 6.3c2.2 9.1 4.5 18.3 6.8 27.2.9 3.5 1.8 7 2.6 10.5.5 1.9.9 3.9 1.3 5.7 1.7 7.8 3.3 15.1 8.4 20.4 0 0 .1.1.1.2 5.2 5.8 4.3 11.1 2.7 14.6-2.9 6-10.1 6.6-14 6.9h-.4c-.7 0-1.4.1-2.1.2-1.9.2-4 .4-6.2.4-7.8 0-13-2.9-15.5-8.5-1.6-3.7-2-7.2-2.3-10.6-.1-.8-.2-1.7-.3-2.5-.6-5.1-1.6-10.2-3-15.2-2.4-8.9-6-18.3-10.8-28.9-5.6-12.2-11.4-24.6-17-36.6-3.8-8.2-7.8-16.6-11.7-25-4.6-10-9.6-20.7-14.7-31.4-2.5-5.2-5.4-10.3-8.4-15.3-9.8 15.8-19.9 32-29.6 48.2l-7.2 12c-9.6 16.2-19.6 32.9-30.6 48.6-5.9 8.4-12.6 16.7-21.3 26.3-1.3 1.4-2.7 2.9-4.1 4.2-2.7 2.6-5.5 5.4-7.1 8.1-1.4 2.3-1.6 4.7-2 7.9-.1.8-.2 1.7-.3 2.6-.3 2.4-1.9 10.6-8.6 13.7-3.2 1.5-6.4 2.4-9.4 3.3-1.9.6-3.7 1.1-5.5 1.7-3.6 1.3-7.4 2-11.2 2zM106.6 19.3l5.4.6c5.2.7 10.1 2.1 14.8 3.4 2.3.6 4.6 1.3 7 1.9 6 1.4 12 2.3 18.3 3.2l4.2.6c6.9 1 13.5 1.9 20 6.8 12.6 9.4 19.5 25.5 18 42-.6 6-.9 11.5.6 17.4.7 2.6 1.4 5.1 2.2 7.8 1 3.1 2 6.4 2.7 9.7 3.1 13.1 3.9 25.9 2.4 38-.2 1.5-.4 3-.7 4.4-.4 2-.7 3.9-.8 5.7-.1 1.9 0 3.9.1 6 0 1 .1 1.9.1 2.9.1 3.7 0 7.4 0 11 0 2.5-.1 5-.1 7.4 0 11.6 0 24.8-2.3 37.8-1.6 9.1-4.3 20.8-10.5 31-2.7 4.4-5.4 7.9-8.2 10.7 1.5-.4 3.1-1 4.7-1.5 1.3-.5 2.7-.9 4-1.3.5-.1 1-.3 1.5-.4 1-.3 2.7-.7 3.2-1.1.3-.6.3-1.3.4-2.6 0-.5.1-1 .1-1.5.4-3.9 1-8 3-11.9 2.1-4.1 5.1-7.3 8-10.3.6-.6 1.2-1.2 1.8-1.9 3.3-3.6 7.1-7.7 10.7-11.9 6.8-7.9 12.9-16 18.8-24.9 10-15.3 19.6-31.2 28.8-46.5 2-3.3 4-6.7 6-10 8.9-14.8 18.2-29.7 27.1-44.1 2.4-3.9 4.9-7.8 7.3-11.8 1.5-2.5 4.2-3.9 7.1-3.9 2.9 0 5.6 1.5 7 4.1 1.5 2.5 3 5.1 4.5 7.6 3.2 5.2 6.5 10.6 9.3 16.2 3.4 6.8 6.6 13.8 9.7 20.5 1 2.1 1.9 4.2 2.9 6.3l7.5 16.2C359 165.4 365 178.4 371 191l1.6 3.3c7.2 15.1 14.6 30.6 18.6 47.3-.1-.5-.2-.9-.3-1.4-1.5-6.8-3.3-13.8-5-20.5-1.2-4.6-2.4-9.4-3.6-14.2l-.7-3c-1.2-5-2.5-10.2-3.8-15.2-.4-1.4-.7-2.9-1-4.3-1-4.3-2.1-8.8-3.7-12.6-1.2-2.8-2.7-5.5-4.4-8.4-1-1.8-2.1-3.6-3.1-5.5-2.7-5.2-4.4-10.6-6-15.8l-.2-.5c-4.5-14.9-8-27-11.1-38-1.1-4.1-2.1-8.3-3.1-12.3-1.7-7.1-3.5-14.3-5.8-21.1-5.5-16.1-16-27.9-29.7-33.3-7.7-3-16.1-5.3-24.3-7.4l-9-2.4-3.6-1c-10.7-3-21.8-6.1-32.7-7.3-2.7-.3-5.4-.4-8.3-.4-8 0-15.8 1.1-24.1 2.2-1.5.2-2.9.4-4.4.6-8.4 1.1-16.9 1.3-23.4 1.3-3 0-6 0-9-.1-2.5 0-5-.1-7.5-.1-15.5-.1-28.1-.2-39.7-.6-4.1-.1-8.2-.3-12.3-.5-1.5-.4-3.2-.5-4.8-.5zm288.1 243.9h.3c.5 0 1.2-.1 1.8-.1.8-.1 1.6-.1 2.4-.2-3.7-5.9-5.7-12.3-7.2-18.5.8 3.9 1.5 7.4 1.9 10.8.1 1 .2 2.1.2 3.1.1 1.6.2 3.8.6 4.9z"/><path d="M412 260.8c-7.5-7.7-8.5-18.4-11-28.4-3.1-12.6-6.3-25.1-9.4-37.7-2.8-11.7-5-24.2-10.7-34.9-2.5-4.8-5.6-9.2-7.6-14.3-2.4-6.2-4-12.9-5.9-19.3-3.8-12.6-7.3-25.3-10.7-38-2.8-10.5-4.9-21.1-9.2-31-7-15.9-19.8-27.6-36-33.6-11.2-4.2-23.2-6.8-34.7-10-11.8-3.3-23.6-6.4-35.9-7.9-12.7-1.6-24.9.3-37.4 2.2-13.1 2-26.7 1.2-39.9 1.2-26.1-.1-52.2-1.8-78.3-1.7-25.2.1-50.3 3.1-74.4 10.2-2.1.6-3.5 2.4-4.9 3.9-1.5 1.5-.8 3.5-.5 5.2.2 1.4 1.7 2.3 3.1 2.3h24.8c.5 1.9 1.6 3.6 3.4 4.6 4 2.4 6.3.9 9.2-2.1 3.5-3.5 8.5-3.9 13.1-3.6 5.9.3 11.8 1.3 17.8 1.5 12.7.6 25.4.1 38 2.4 5.9 1.1 11.5 3.2 17.3 4.6 6.2 1.5 12.5 2.3 18.8 3.1 6.4.9 12.3 1.1 17.2 4.3 4.7 3.1 8.3 7.5 10.9 12.4 4.3 8.1 4.1 17.2 3 26-1.5 12.1 4.6 24.2 7.2 35.8 1.5 7 2.1 14.1 2.1 21.2s-1.5 13.9-2.2 20.9c-.6 7 .1 14.4 0 21.4 0 7.1.1 14.3-.1 21.4-.4 13-2.1 26-6.6 38.2-2.1 5.8-5.2 11.3-9.2 16-4.4 5.1-10.4 7.4-16.1 10.6-2.2 1.2-2 4.3 0 5.5 8.8 5.7 17.4 7.6 27.3 4 4.8-1.8 9.8-2.7 14.5-4.9 3.6-1.6 5.3-6.2 5.7-9.8.6-4.5.5-8.4 2.9-12.4 2.9-4.9 8-9 11.8-13.2 7.5-8.2 14.6-16.7 20.9-25.8 13.6-19.4 25.4-40 37.7-60.3 11.2-18.5 22.6-36.8 34-55.2 4.5 7.5 9 14.9 12.8 22.8 5 10.4 9.8 20.9 14.7 31.4 9.5 20.6 19.4 41 28.8 61.6 4.4 9.6 8.3 19.5 11.1 29.6 1.5 5.2 2.5 10.5 3.2 15.9.5 4.1.5 7.9 2.2 11.8 3.2 7.3 12.6 5.5 18.8 5 3.3-.3 8.5-.5 10.2-4 1.6-3.2.6-6.2-1.8-8.9zm-6.8 6.6c-2.6.3-5.3.4-7.9.6-2.2.2-5.1.5-6.5-1.6-1.9-2.8-1.5-7.4-1.9-10.6-.5-4.5-1.4-9-2.5-13.5-4.2-17.4-12.2-33.7-19.9-49.8-8.6-18-16.9-36.2-25.3-54.3-4.2-8.9-8.2-17.9-12.6-26.6-4-8.1-9.1-15.7-13.7-23.5-1.2-2.1-4.3-2-5.5 0-11.5 18.6-23.1 37.1-34.4 55.8-11.5 19-22.8 38.1-35 56.7-5.9 8.9-12.2 17.4-19.1 25.5-3.5 4.1-7.2 8.1-10.8 12.1-3.2 3.5-6.8 6.8-8.9 11-1.6 3.1-2.1 6.7-2.5 10.1-.2 2.1-.1 4-1.1 5.9-1.4 2.6-5.1 3.2-7.6 4-4.8 1.5-9.9 3.7-15 4-3.3.1-6.4-.9-9.3-2.4 2.8-1.4 5.5-2.8 7.9-4.7 4.1-3.3 7.4-7.7 10.1-12.1 5.4-8.8 8.1-19.2 9.9-29.3 2.2-12.2 2.2-24.6 2.2-36.9 0-6.1.2-12.2.1-18.3-.1-3.1-.3-6.1-.1-9.2.1-3.5 1.1-7 1.5-10.5 1.5-12.1.5-24.4-2.3-36.2-1.4-5.9-3.5-11.5-5-17.3-1.7-6.6-1.4-12.4-.8-19.1 1.3-14.4-4.4-28.8-16-37.5-5.8-4.4-11.8-5-19-6-7.3-1-14.5-1.9-21.6-3.7-7.2-1.7-13.9-4.2-21.2-5.1-14.9-2-29.9-1-44.8-2.5-5.7-.6-11.1-1.4-16.8 0-2.4.6-4.7 1.9-6.7 3.4-1 .8-1.8 1.7-2.7 2.6-.1-.1-.1-.2-.3-.3-.5-.4-.7-.8-.5-1.4.5-2-1-4.1-3.1-4.1h-20c3.6-1.3 7.6-1.9 11-2.7 6.4-1.5 12.9-2.6 19.4-3.5 12.7-1.8 25.6-2.5 38.4-2.6 12.9-.1 25.8.7 38.8 1.1 13.2.4 26.4.6 39.6.6 13 0 26.3.6 39.3-1.1 12.8-1.7 25-3.8 38-2.4 12.6 1.3 25 5.1 37.1 8.5 11.2 3.1 23 5.7 33.8 10 16.2 6.4 27 20.1 32.6 36.3 3.8 11 5.9 22.6 9 33.8 3.5 12.7 7.2 25.3 11 37.9 1.6 5.3 3.2 10.5 5.8 15.4 2.5 4.8 5.6 9.2 7.7 14.3 2.3 5.5 3.5 11.8 4.9 17.6 1.6 6.1 3 12.2 4.5 18.3 2.8 11.6 6.1 23.1 8.6 34.7 2.2 9.8 4.4 19.2 11.6 26.6 1.5 1.9-.6 1.8-2.4 2z"/><path d="M221.1 189.7c-.9 0-1.7-.2-2.5-.5l-.4-.2c-.2-.1-.4-.1-.5-.2-.1 0-.1 0-.2-.1-3.5-1.5-5.3-4.8-4.7-8.5.5-3 1.1-5.9 1.6-8.9.9-4.8 1.8-9.9 2.6-14.8.2-1 .4-2 .5-3 .5-3 1.1-5.9 1.2-8.6.1-3.3-.1-6.6-.3-9.9-.3-3.6-.6-7.4-.9-10.9-.4-4.2-.7-8.6-1-12.9-.1-.9-.1-1.8-.2-2.8-.5-5.2-1.1-11.8 2.2-17.2 3-5 7.5-7.3 11.5-9.2 1.1-.6 2.2-1.1 3.2-1.6.6-.3 1.1-.6 1.7-1 4.3-2.5 9.2-5.3 14.9-6.1 2-.3 3.9-.4 5.8-.4 4.7 0 8.5 1 11.4 2.9 6.2 4.2 4.3 11.7 3.4 15 0 .1 0 .1-.1.2-5 17.7-10.8 34.7-17 50.6-3.5 8.8-7.2 16.4-11.5 23.1-2.7 4.3-5.6 8.5-8.4 12.6-2 2.9-4 5.9-6 8.8-1.5 2.2-3.9 3.6-6.3 3.6zm33.7-101.9c-3 0-5.9.8-9.1 2.5-1 .6-2.1 1.2-3.1 1.8-1.2.7-2.5 1.4-3.7 2.1-1 .5-1.9.9-2.8 1.3-1.2.5-2.3 1-3.1 1.6-1.9 1.2-2.2 2.5-1.9 7.6.3 6.5.9 13.1 1.4 19.5v.5c.1 1.4.2 2.7.4 4.1.5 5 .9 10.2.8 15.4-.1 1.7-.2 3.4-.4 5.1 2.4-4.4 4.5-8.9 6.4-13.6 6.3-16.6 11.7-32.6 16-47.8-.3-.1-.6-.1-.9-.1z"/><path d="M264 79.9c-3.6-2.4-9.6-2.2-13.6-1.6-5.4.8-10.2 3.9-14.8 6.5-4.7 2.6-9.9 4.1-12.8 9-2.9 4.9-1.6 11.7-1.2 17.1.5 7.9 1.3 15.9 1.9 23.8.2 3.5.5 7 .3 10.4-.1 4.1-1.1 8.2-1.8 12.3-1.3 7.9-2.8 15.8-4.3 23.7-.3 1.4.4 2.4 1.7 3 .4.1.7.3 1 .4 1 .4 2.2-.3 2.8-1.1 4.7-7.2 9.7-14.1 14.3-21.3 4.4-7.1 8-14.5 11-22.3 6.5-16.4 12-33.2 16.9-50.1.9-3.2 1.9-7.6-1.4-9.8zm-19.8 57.6c-5 13.1-12.5 24.5-20.3 35.9.6-3.3 1.2-6.6 1.8-10 1.1-6.4 2.6-12.9 2.8-19.4.2-6.3-.6-12.6-1.1-18.8-.6-6.7-1.1-13.5-1.5-20.2-.2-4.9-.3-9.1 4.2-12 1.9-1.3 4.2-2 6.3-3.1 2.3-1.2 4.6-2.6 6.9-3.8 4.5-2.4 9-3.6 14.1-3 1.1.1 3.1.2 4 .9.7.6-.5 3.7-.7 4.4-4.7 16.5-10.3 33-16.5 49.1zm-108.7-21.6c-15.6 0-29-13.6-29.3-29.8-.1-7.8 3-15.3 8.8-20.9 5.6-5.5 13.3-8.7 21-8.8h.4c15.6 0 29 13.6 29.4 29.6v.3c-.4 16.4-13.4 29.4-29.8 29.6h-.5zm.6-44.5c-3.9.1-7.8 1.7-10.7 4.6-2.8 2.8-4.3 6.3-4.3 9.9.1 8 6.8 15 14.3 15h.3c8.1-.1 14.7-6.6 15-14.8-.3-7.9-6.9-14.7-14.3-14.8h-.3z"/></svg>