<svg version="1.1" id="Layer_1" xmlns="http://www.w3.org/2000/svg" x="0" y="0" viewBox="0 0 23.4 20" xml:space="preserve" fill="#fff"><path d="M23.4 6.8c0 .7-.1 1.4-.3 2.1-1 4.9-9.6 10.7-9.9 11-.2.1-.3.1-.5.1s-.3 0-.4-.1c-.1-.1-2.5-1.7-5-4-.3-.3-.3-.7-.1-1.1.3-.3.7-.4 1-.1 1.8 1.7 3.7 3.1 4.4 3.6 2.6-1.8 8.3-6.4 9-9.9.3-.5.4-1 .4-1.6 0-1.9-1-3.7-2.5-4.7-2-1.2-4.7-.6-6.2 1.3-.3.3-.8.3-1.1 0C10.7 1.5 8 .9 6 2.1c-1.5 1-2.5 2.8-2.5 4.7 0 .5.1 1.1.2 1.6s.6 1.5.6 1.5h4.1l1.4-3.5c.1-.3.4-.5.7-.4.3 0 .5.3.6.6l1 4.7L13.4 9c.1-.2.3-.4.6-.4h2.5c.4 0 .8.4.7 1-.1.3-.4.6-.7.6h-2.1l-2 3.5c-.1.1-.4.3-.6.3h-.1c-.3 0-.5-.3-.6-.6l-.9-4.3-.7 1.9c-.1.3-.4.4-.6.4H.7s-.7-.3-.7-.8.3-.8.7-.8h2c-.1-.3-.2-.6-.3-1-.2-.6-.3-1.3-.3-2 0-2.5 1.2-4.8 3.3-6 2.3-1.4 5.4-1 7.4 1 1.9-2 5-2.4 7.4-1 1.9 1.2 3.2 3.5 3.2 6z"/></svg>