<svg version="1.1" id="Isolation_Mode" xmlns="http://www.w3.org/2000/svg" x="0" y="0" viewBox="0 0 386.6 426.6" xml:space="preserve" fill="#fff"><path d="M163.8 426.6c-2.1 0-4.2-.3-6.2-.9-4.9-1.5-8.4-4.6-9.8-8.8-1.4-4.2-.5-9 2.5-13.1 3.8-5.4 4.9-12.5 3.6-23.1-.3-2.5-.6-4.9-1-7.4-1.1-8.1-2.2-16.6-2.6-25.1-.6-10.6-.7-21.7-.3-34.1 0-1.6.1-3.2.2-4.8.2-4.2.4-8.2.1-12.1-.3-3.9-.9-7.8-1.5-11.9l-.6-4.5c-1.1-7.9-1.8-15.9-2.5-23.6-.3-3.4-.6-6.8-.9-10.1-.5-5-1.1-10.2-1.6-15.1-.5-4.8-1.1-9.8-1.6-14.8-1.1-11.3-1.6-22.7-2.1-33.8l-.2-4.9c-.2-3.3-.3-6.6-.4-10-.3-7.8-.6-15.8-1.3-23.7-.1-.7-.1-1.5-.2-2.2-.4-5.2-.8-11.7-4-14.7-1.9-1.9-4.6-2.5-6.5-2.6-2.4-.2-4.8-.4-7.1-.6-2.8-.2-5.7-.4-8.5-.7-1.6-.1-3.1-.3-4.7-.5-5.1-.6-10.3-1.1-15.4-1.1-1.3 0-2.5 0-3.7.1-4.2.3-8.4.8-12.2 1.2-5.1.6-10.2 1.2-15.3 1.9-6.8.8-13.8 1.7-20.8 2.5-1.8.2-3.6.4-5.5.7-5.5.7-11.3 1.4-17 1.4-2.3 0-4.5-.1-6.5-.4-1.4-.2-5.8-.7-8.3-4.2-1.1-1.5-2.1-4.2-1.2-8.1 2.2-9.4 12.2-11.5 18.9-12.9 1.3-.3 2.5-.5 3.5-.8C33.7 101 44.8 98 56 95.4l2.6-.6c5.4-1.3 11-2.6 16.8-3.2 8.1-.9 16.4-1.5 24.4-2 1.9-.1 13.2-.9 13.2-.9 9-.6 18.4-1.3 27.5-2l1.6-.1c3-.3 6.4-.5 8.9-.9.4-.1.7-.1 1-.2.4-.2.8-.3 1.3-.4.6-.1 1.3-.2 2-.2 2.9 0 5.8 1.2 8.2 2.2.7.3 1.5.6 1.9.7 3.5 1 7 1.9 10.2 1.9.6 0 1.2 0 1.8-.1 3.2-.4 6.5-1.3 9.6-2.1 4.6-1.3 8.5-2.3 13.2-2.6 9-.5 18.1-.8 26.9-1.1 3.9-.1 7.9-.3 11.8-.4 2.4-.1 4.8-.2 7.2-.4 3.9-.2 7.9-.5 11.9-.5 2.8 0 5.4.1 7.8.4 12.7 1.3 25.8 2.9 40.3 4.8 1.7.2 3.4.4 5.2.6 5.2.6 10.6 1.2 15.7 2.8 7.6 2.4 8.6 7.4 8.5 10.2-.1 2.7-1.6 6.3-4.8 7.9-2.6 1.3-5.2 1.7-7.5 2.1l-.6.1c-4.4.7-8.8 1.2-12.9 1.7-12.5 1.4-25.1 2.6-37.3 3.8-11.9 1.1-24.2 2.3-36.3 3.6-4.2.5-9.1 1-13.9 1.8l-.6.1c-5 .8-8.3 1.4-9.7 3.9-1.3 2.4-1.7 5.4-2.2 8.7-.1 1-.3 2-.5 3l-.1.9c-.9 5.2-1.7 10.1-1.8 15-.1 9.8 1.4 19.6 3 27.7 2.5.3 4.9.5 7.4.8 7.7.8 15.4 1.6 23.1 2.3 17.6 1.8 35.6 4.6 55.1 8.8 12.2 2.6 24.8 5.3 37.1 9.5 3.7 1.2 7 2.8 10.3 4.3 1.3.6 2.6 1.2 4 1.8 6.9 3.1 14.3 4.9 22.1 6.7l2.5.6c.2 0 .4.1.7.2.3.1.7.2 1 .3 4.8 1.8 10.7 6.5 12.8 12.2 1.3 3.5 1 7.2-.9 10.3-3.6 6-9.8 9.4-17 9.4-2.9 0-5.8-.5-8.7-1.6-3.4-1.2-6.8-2.6-10-3.8-6.5-2.6-12.7-5-19.3-6.8-5.1-1.4-10.5-2-17.2-2-2.1 0-4.5.1-7.1.2-2.9.1-5.9.4-8.8.5-6.1.4-12.4.9-18.7.9h-1.1c-4.8 0-9.7-.4-14.4-.7-2-.1-3.9-.3-5.9-.4-13.5-.8-27.2-1.6-40.4-2.3l-2.7-.1c-5.5-.3-10.9-.6-16.4-.9-.6 0-1.3 0-1.9-.1h-.6v5.5c-.3 5.6-.5 11.2-.8 16.8l-.2 5c-.5 10.8-1 22-1.6 33-.3 4.7-.8 9.3-1.4 13.8-.6 5-1.2 9.8-1.4 14.6-.4 10.6-1 22-2.8 33.6-.5 3.3-1.1 6.6-1.7 9.9-1.4 7.7-2.8 15.6-3.1 23.3-.2 4.4.3 8.6.7 13.2l.2 2c.3 3.4.6 8.5-1.3 13.5-3 6.4-10 10.7-18.1 10.7zm3.6-22c-.5 1.2-1 2.3-1.6 3.5-.3.6-.7 1.2-1.2 2-.2.2-.4.6-.7 1 1.2 0 2-.3 2.3-.5.6-.3 1.5-1.5 1.2-6zM89.6 106.7c1 0 1.9 0 2.9.1 9.5.4 19 1.3 28.3 2.2 2 .2 3.9.4 5.9.6 9.6.9 16.5 4.6 20.5 11 4.4 7.1 5 15.2 5.6 22.5v.6c.3 4 .5 8 .7 11.9l.1 1.6c.2 4 .4 8.1.5 12.1.4 9.6.9 19.5 1.4 29.2.6 10.8 1.8 21.8 3 32.4.5 4.6 1 9.3 1.5 13.9.4 3.6.7 7.1 1 10.7.7 7.9 1.4 16 2.5 23.9.2 1.3.4 2.6.6 4 .6 4.3 1.3 8.7 1.6 13.2.3 4.3.1 8.5 0 12.5 0 1.3-.1 2.7-.1 4-.4 13.4-.3 23.7.2 33.4.4 7.9 1.4 15.5 2.4 23.4.4-2.4.8-4.7 1.2-7.1.4-2.3.8-4.5 1.1-6.8 1.8-11 2.8-22 3.2-33.5.2-5.7.9-11.3 1.5-16.7.6-4.7 1.1-9.1 1.3-13.6.6-10.5 1.1-21.2 1.5-31.5l.3-5.7c.1-2.9.3-5.9.4-8.8.2-5.7.5-11.6.8-17.5.3-5 3.7-11.3 9.4-12.8.7-.2 1.3-.3 2-.3h.2c.4 0 .6 0 1 .1l1 .1c3.2.2 6.5.4 9.7.6 0 0 12.2.7 17.3 1l26.4 1.5c2.6.1 5.2.3 7.8.5 8.5.5 17.3 1.1 25.8 1.1 3.6 0 7-.1 10.3-.3 2-.1 4-.3 6-.4 5.6-.4 11.3-.8 17.1-.8 1.8 0 3.5 0 5.1.1 8.4.4 16.4 2.5 23.5 4.9-1.9-.9-3.8-1.8-5.6-2.6-.8-.4-1.7-.8-2.5-1.2-5-2.4-10.7-3.9-16.2-5.3l-1.6-.4c-11.7-3.1-24.1-5.9-39.2-8.8l-3.2-.6c-7.2-1.4-14.6-2.9-21.9-3.5-7-.7-14.2-1.4-21.1-2.1l-12-1.2-9.3-.9c-.6-.1-1.3-.1-2-.1-1.9-.1-4.1-.2-6.2-.8-2.7-.8-4.9-3-5.4-5.7-2.1-10.1-4.4-22-4.5-33.9-.1-6.5.8-12.9 1.6-17.7.2-1.3.4-2.7.6-4 .5-3.6 1-7.3 2.1-10.9 2.8-8.6 9.2-14.4 18-16.1 4-.8 8-1.3 12.2-1.9 15.6-2 31.5-3.5 46.9-4.9 2.9-.3 5.8-.5 8.8-.8-7.1-.9-14.2-1.7-21.3-2.2-.5 0-1-.1-1.6-.1-1.5 0-3.1.1-4.8.3l-3.6.3c-6.6.3-13.2.5-20 .8-3.2.1-6.4.2-9.6.2-7.9.2-16 .3-23.8 1.2-.5.2-.9.3-1.2.4-.3.1-.5.1-.6.2-1.4.4-2.9.9-4.4 1.3-3.4.9-7 1.9-10.9 2.4-1.5.2-3 .3-4.6.3-6.9 0-13.3-2.1-19.4-4-.5-.1-.9-.3-1.3-.4-.7.1-1.4.2-2 .3-.3 0-.5.1-.8.1-2.8.4-5.5.6-8.6.9-8.1.7-16.3 1.3-24.2 1.8l-8.5.6c-7 .5-14.3 1-21.5 1.5-1.1.1-2.1.2-3.2.2-4.6.3-9.4.7-13.4 1.5-2.8.6-5.6 1.2-8.5 1.8l.7-.1c1.8-.2 3.6-.5 5.5-.7 6.4-1.6 13-2.5 19.6-2.5zM353 227.8c2.8 1.1 5.7 2.3 8.5 3.5 2.3 1 4.8 1.9 6.8 1.9.6 0 1.2-.1 1.6-.3-.7-.7-1.5-1.3-2-1.5-1.1-.3-2.3-.5-3.4-.8-3.8-.8-7.7-1.7-11.5-2.8z"/><path d="M370.7 221.3c-8.8-2.1-17.7-4-26-7.7-4.6-2.1-8.9-4.4-13.8-6-11.9-4-24.3-6.7-36.6-9.3-18.1-3.9-36.1-6.9-54.6-8.8-7.7-.8-15.4-1.5-23.1-2.3-3-.3-6.1-.6-9.1-.9l-3-.3c-.5-.1-1.5-.4-.5-.1.6.6 1.3 1.3 2 1.9-2.4-11.1-4.3-22.7-4.2-34.2.1-5.6 1.1-11.2 2-16.7.8-4.4 1-9.3 3.2-13.3 2.8-5.1 8.8-5.8 13.9-6.6 4.7-.7 9.4-1.3 14.1-1.8 24.5-2.8 49.1-4.6 73.6-7.4 4.2-.5 8.5-1 12.7-1.7 2.2-.4 4.6-.6 6.6-1.7 1.3-.7 2.1-2.3 2.1-3.7.1-3-2.5-4.4-5-5.2-6.3-2-13.5-2.3-20.1-3.2-13.4-1.8-26.8-3.4-40.2-4.8-8.7-.9-17.5.2-26.2.5-12.9.5-25.7.7-38.6 1.5-4.3.3-8 1.2-12.2 2.4-3.4.9-6.8 1.9-10.3 2.3-4.7.6-9.5-.7-14-2-2.5-.7-8-3.8-10.5-2.3.9-.5.2-.1-.2 0-.5.1-1.1.2-1.6.3-3.1.5-7.3.8-10.8 1.1-11.7 1-23.5 1.8-35.2 2.6-9.9.7-19.9 1.3-29.8 2.4-6.3.7-12.6 2.3-18.8 3.7-11 2.5-21.9 5.4-32.7 8.3-6.2 1.7-17 2.3-18.7 10-1 4.3 1.5 5.8 5.2 6.3 9.1 1.1 18.9-.7 27.9-1.7 12-1.3 24.1-2.9 36.1-4.3 4.1-.5 8.3-1 12.5-1.2 8.2-.5 16.5.7 24.6 1.5 5.2.5 10.4.8 15.6 1.3 3.5.3 6.9 1.6 9.5 4 5 4.9 5.1 13.6 5.6 20.1.9 11.2 1.2 22.6 1.7 33.8.6 12.8 1.1 25.7 2.4 38.5 1 10 2.3 19.9 3.3 29.9 1.1 11.2 1.9 22.5 3.4 33.6.8 5.5 1.7 11 2.1 16.6.5 5.8-.1 11.7-.2 17.5-.3 11.2-.3 22.5.3 33.7.6 10.8 2.2 21.4 3.6 32.1 1.1 9.1 1 18.8-4.5 26.6-4.2 5.8-2.3 12.1 4.7 14.2 6.6 2 15.1-.4 17.7-7.2 1.4-3.6 1.4-7.5 1-11.3-.5-5.3-1.2-10.5-.9-15.8.5-11.3 3.1-22.6 4.9-33.8 1.7-11 2.3-21.9 2.7-33 .3-9.6 2.3-19 2.8-28.5.7-12.6 1.2-25.2 1.8-37.9.3-5.9.5-11.9.8-17.8.1-2.9-.6-8.5 2.6-10l-2.1.3c2.4.5 5 .4 7.3.6 5.5.3 10.9.6 16.4.9 14.4.8 28.8 1.6 43.1 2.5 6.7.4 13.4 1 20.1 1.1 9.4.1 18.8-.9 28.2-1.4 8.8-.5 17.3-.3 25.8 2 10.2 2.8 19.8 7.2 29.7 10.8 7.4 2.7 15.5 1.3 19.7-5.7 3.9-6.1-4.2-13.6-9.8-15.3-3.5-1-4.9 4.3-1.5 5.4 2.5.8 4.9 3.2 6.3 5.4 1.5 2.3-1.8 4.8-3.7 5.5-4 1.6-8.6-.1-12.3-1.7-4.9-2.1-9.8-4-14.8-5.8-8.6-3.1-17.3-5.7-26.4-6.1-9.2-.4-18.5.5-27.6 1.1-14.9.9-29.7-.4-44.5-1.3-13.8-.8-27.7-1.5-41.5-2.3-4-.2-7.9-.4-11.9-.7-.4 0-.8-.1-1.2-.1-.3 0-.8-.1.4 0-.6-.1-.9-.2-1.5 0-3.3.9-5.6 5.1-5.8 8.3-.5 8.7-.8 17.5-1.2 26.2-.6 12.4-1.1 24.9-1.8 37.3-.5 10.1-2.5 20-2.8 30.2-.4 11.5-1.4 22.8-3.3 34.1-1.7 10.7-4 21.5-4.3 32.4-.1 4.8.6 9.5 1.1 14.3.4 4 .4 9.3-3.6 11.5-2.9 1.6-8 1.5-10.6-.6-2.1-1.7 2.5-7 3.3-8.5 4.3-8.3 4.1-17.9 2.9-26.8-1.4-10.8-2.9-21.4-3.5-32.3-.6-11.2-.5-22.5-.2-33.8.1-5.4.5-10.8.2-16.1-.3-5.6-1.4-11.2-2.1-16.8-1.6-11.5-2.4-23.2-3.5-34.8-1.5-15.5-3.5-31-4.4-46.5-.8-13.8-1.4-27.6-2-41.4-.2-4.4-.4-8.9-.8-13.3-.6-7.1-1.1-14.6-4.9-20.8-3.6-5.9-10.1-8.1-16.7-8.7-11.3-1.1-22.6-2.3-33.9-2.7-9.1-.4-18.2 1.3-27.2 2.4-12.2 1.5-24.4 3.1-36.6 4.2-4.7.4-9.4.8-14.1.9-1.1 0-3.4-.1-3.9-.1-.5-.1-.9-.2-1.3-.3.7.2-.1-.2.6.4 1.1.9.5.7 1.1-.6.6-1.2 2.5-1.6 3.6-1.9 2.3-.7 4.6-1.3 6.9-1.9 5.7-1.5 11.3-3 17-4.5 10.9-2.8 21.8-5.5 32.9-7.7 5.2-1.1 11.4-1.4 17.3-1.8 9.3-.7 18.5-1.3 27.8-2 8.8-.6 17.5-1.2 26.3-2 2.8-.3 5.6-.5 8.4-.9 1.5-.2 3.5-.2 4.9-1.1l-2.1.3c8.2 2.5 16.5 5.9 25.2 4.6 3.5-.5 6.9-1.4 10.3-2.3 1.4-.4 2.9-.8 4.3-1.2.5-.1 2.6-.7 2.3-.7 11.3-1.3 22.9-1.1 34.2-1.5 6.6-.2 13.3-.4 19.9-.8 3.5-.2 7.1-.7 10.5-.4 11.9.9 23.8 2.5 35.7 4.1 6.9.9 13.8 1.8 20.7 2.9 1.6.3 3.2.5 4.8.8.9.2 1.7.4 2.5.7 1.3.4-.3.1.1-.8.3-.7.9-.8.8-.8-.4.2-.9.3-1.4.4-7.8 2-16.2 2.4-24.2 3.2-24.4 2.6-48.9 4.3-73.3 7.5-4 .5-7.9 1-11.8 1.8-7.1 1.4-12.1 5.9-14.3 12.8-1.4 4.5-1.8 9.5-2.5 14.2-.9 5.6-1.6 11.1-1.5 16.8.1 11 2.1 22.2 4.4 33 .2.9 1 1.7 1.9 1.9 2.3.7 5 .6 7.3.8 5.2.5 10.4 1.1 15.6 1.6 8.9.9 17.8 1.8 26.8 2.7 8.6.8 17.1 2.6 25.5 4.2 13.3 2.6 26.5 5.4 39.5 8.9 6.3 1.6 12.8 3.3 18.7 6 4.7 2.2 9.2 4.5 14.1 6.2 6.2 2.1 12.7 3.5 19.1 5 3.3.6 4.8-4.8 1.3-5.6zm-193.8-146c-7.4 0-14.5-2.2-20.4-6.3-15-10.4-20.7-29.3-13.9-45.8C148.4 9.3 162.4 0 177.5 0c2.5 0 4.9.3 7.3.8 17.5 3.7 29.9 18.8 30.2 36.8v.7c-.3 9.9-4.1 19.1-10.7 25.7-7.1 7.2-17.1 11.3-27.4 11.3zm.6-59.7c-5.8.1-11.5 2.5-15.7 6.6-4.3 4.2-6.6 9.7-6.5 15.4.2 12 10.1 22.2 21.7 22.2h.3c12.2-.2 21.9-9.9 22.2-22.1-.2-12-10.1-22.1-21.7-22.1h-.3z"/><path d="M204.5 37.7c-.2 14.9-12.1 26.8-27.1 27.1-15 .2-26.9-12.5-27.1-27.1-.2-14.9 12.5-26.9 27.1-27.1 15-.2 26.9 12.5 27.1 27.1 0 3.6 5.6 3.6 5.6 0-.2-15.5-11-28.8-26.2-32-15-3.1-30.7 5.3-36.5 19.5-6 14.5-.7 31 12.1 39.8 12.9 8.9 30.6 6.3 41.4-4.5 6-6 9.1-14.4 9.2-22.8 0-3.6-5.5-3.6-5.6 0z"/></svg>