<svg version="1.1" id="Isolation_Mode" xmlns="http://www.w3.org/2000/svg" x="0" y="0" viewBox="0 0 164.4 432.6" xml:space="preserve" fill="#fff"><path d="M110 432.6c-6.9 0-12.6-5.6-12.7-12.5-.6-52.2 3.7-89.2 12.6-110 4.4-10.3 11.5-18 17.8-24.9l.1-.1c4.4-4.8 9.4-10.3 10-13.6v-.2l.1-.2c.9-3.3 1.3-6.1 1.2-9.1-.1-2-.3-3.9-.8-5.8-7.4 3.6-15.6 5.6-23.8 5.9h-1.9c-10.1 0-19.9-2.5-28.7-7.3-9 5.8-19.3 9-30 9.3h-1.8c-9.1 0-18-2-25.9-5.9a25 25 0 00-.9 7.7c.1 2.8.6 5.5 1.6 8l.1.2.1.2c1 3.6 5.5 8 10 12.3 6.6 6.3 14.1 13.5 18.7 23.7 9.5 20.5 14 57.4 13.4 109.6 0 6.9-5.7 12.5-12.6 12.5h-.1c-3.4 0-6.5-1.4-8.9-3.8-2.4-2.4-3.6-5.6-3.6-9 .7-60.3-5.6-86.9-11.1-98.6-2.8-5.9-8.1-11.1-13.3-16.1l-.2-.2c-6.8-6.6-13.9-13.5-16.4-23-1.6-4.5-2.6-9.8-2.8-15-.4-12.6 3.8-24.9 11.8-34.6 2.2-2.7 5.3-4.3 8.7-4.6h1.1c3 0 5.9 1.1 8.2 3 2.3 1.9 4.5 3.5 6.8 4.6 4.8 2.4 10 3.7 15.3 3.7h1.4c8-.3 15.7-3.4 21.6-8.8 2.3-2.1 5.3-3.3 8.5-3.3 2.9 0 5.7 1 7.9 2.7 6 4.8 13.5 7.4 21.1 7.4h1.3c5.7-.2 11.3-1.9 16.2-4.8 1.4-.9 2.9-2 4.7-3.5 2.3-2 5.2-3.1 8.3-3.1h1c3.4.3 6.6 2 8.7 4.6 7.3 8.9 11.4 19.7 11.8 31.1.2 5.4-.5 10.7-2 15.9-1.8 9.6-8.7 17.1-16 25.1l-.3.3c-5.1 5.6-10.4 11.4-13 17.5-7.4 17.2-11.1 51.7-10.5 99.7.1 7-5.5 12.7-12.5 12.8l-.3.2zM51.9 221.5c-8.1 0-16.2-2-23.5-5.7C11.6 207.3.7 190.3 0 171.3c-.2-5.4.5-10.7 2-15.9 1.8-9.6 8.8-17.2 16.1-25.2l.2-.2c5.1-5.6 10.3-11.3 13-17.5 7.4-17.3 11.1-51.7 10.5-99.7C41.7 5.8 47.3.1 54.3 0h.2C61.8.2 67 5.5 67.1 12.5c.6 52.1-3.7 89.1-12.6 109.9-4.4 10.3-11.9 18.4-17.8 24.9-4.5 4.9-9.5 10.4-10.1 13.7v.2l-.1.2c-.9 3.3-1.3 6.1-1.2 9.1.3 9.6 5.9 18.4 14.6 22.8 3.7 1.9 7.8 2.9 11.8 2.9h1.1c8-.2 15.3-4 20.3-10.3 2.3-3 5.8-4.7 9.5-4.9h.5c3.5 0 7.1 1.6 9.5 4.2 5.2 5.8 12.5 9 20.6 9h.3c4.4-.2 8.8-1.5 12.7-3.8 8.3-5 13.3-14.1 13-23.8-.1-2.8-.6-5.5-1.6-8l-.1-.2-.1-.2c-1-3.7-5.8-8.3-10-12.3-6.6-6.4-14-13.5-18.7-23.7-9.5-20.5-14-57.4-13.4-109.6C95.4 5.3 100.6.2 108 .1c7 .1 12.7 5.8 12.6 12.8-.7 60.3 5.6 86.9 11.1 98.7 2.7 5.8 8.1 11.1 13.3 16.1 6.9 6.7 14.1 13.6 16.6 23.2 1.7 4.5 2.7 9.8 2.8 15 .6 18.9-9.1 36.7-25.3 46.4-7.5 4.5-16.1 7-24.8 7.3h-2c-10.1 0-20.1-3.1-28.6-8.7-8.5 6.6-19 10.4-29.9 10.8l-1.9-.2z"/></svg>