<svg version="1.1" id="Isolation_Mode" xmlns="http://www.w3.org/2000/svg" xmlns:xlink="http://www.w3.org/1999/xlink" x="0" y="0" viewBox="0 0 294.9 362.5" xml:space="preserve"><defs><path id="SVGID_1_" d="M12.5 11.5h270v369h-270z"/></defs><clipPath id="SVGID_2_"><use xlink:href="#SVGID_1_" overflow="visible"/></clipPath><path d="M176.1 294.6c-4.4-6.6-28.6-39.1-28.6-39.1-12 15.8-22.5 30-28.6 39.1-4.1 6.2-7.1 13.4-7.1 21.5.1 19.6 16 35.5 35.7 35.4 19.6.1 35.6-15.8 35.7-35.4 0-8.1-3-15.2-7.1-21.5z" clip-path="url(#SVGID_2_)" fill="none" stroke="#fff" stroke-width="25" stroke-linecap="round" stroke-linejoin="round" stroke-miterlimit="10"/><path d="M210.4 12.5c-27.2 0-50.9 15.3-62.9 37.7-12-22.4-35.7-37.7-63-37.7-39.8 0-72 32.3-72 72 0 16.3 11.2 31.3 20.3 43.4 28.2 37.3 73 72.7 114.6 127.6 41.6-54.9 92.2-90.3 120.4-127.6 9.1-12.1 14.5-27.1 14.5-43.4.1-39.7-32.1-72-71.9-72z" fill="none" stroke="#fff" stroke-width="25" stroke-linecap="round" stroke-linejoin="round" stroke-miterlimit="10"/></svg>