<svg version="1.1" id="Isolation_Mode" xmlns="http://www.w3.org/2000/svg" x="0" y="0" viewBox="0 0 417.6 417.6" xml:space="preserve" fill="#fff"><path d="M123.5 417.6c-5 0-9.5-3-11.5-7.5-2.2-5.1-53.9-124.7-41.7-186.3v-.6l.2-.4c7.3-35.4 18.7-55.7 27.9-72.1 6.1-10.9 10.9-19.4 12.8-29.6 3.6-19.1-8.4-74.7-16.8-105.3-1-3.8-.2-7.8 2.1-10.9 2.4-3.1 6-4.9 10-4.9h204.8c3.9 0 7.6 1.8 10 4.9 2.3 3.1 3.2 7.2 2.1 10.9C315 46.4 303 102 306.6 121.1c1.9 10.2 6.7 18.8 12.8 29.6 9.2 16.3 20.6 36.6 27.8 71.8l.3.4v.9c12.1 61.5-39.5 181.2-41.7 186.3-2 4.6-6.5 7.5-11.5 7.5H123.5zm162.3-25.1c5-12.2 13.5-34.1 21.3-59.1 10.7-34.3 16.5-63.5 17.1-85.1l-102.8 69.5v74.7h64.4zm-89.5 0v-74.7L93.5 248.3c.5 21.5 6.4 50.7 17.1 85.1 7.8 25 16.3 47 21.3 59.1h64.4zm12.5-96.4l85.3-57.7H123.5l85.3 57.7zm110.3-82.8c-6.3-22.8-14.4-37.4-21.7-50.3-7-12.4-13-23.1-15.6-37.3-2.6-13.7-.4-37.6 6.5-71.2 1.9-9.4 4.2-19.3 6.7-29.5H122.6c2.5 10.2 4.8 20.1 6.7 29.5 6.9 33.6 9.1 57.5 6.5 71.2-2.7 14.2-8.7 24.9-15.6 37.2-7.3 13-15.5 27.5-21.7 50.3l220.6.1z"/><path d="M343.3 224.2s0-.1 0 0c-7.2-35.1-18.5-55.3-27.6-71.4-6.3-11.2-11.3-20-13.3-30.8-4.2-22.3 10.8-84.8 16.9-107.1.7-2.6.2-5.3-1.5-7.4-1.6-2.1-4.1-3.4-6.8-3.4H106.4c-2.7 0-5.2 1.2-6.8 3.4s-2.1 4.9-1.5 7.4c6.1 22.2 21.1 84.8 16.9 107.1-2 10.8-7 19.6-13.3 30.8-9.1 16.2-20.4 36.3-27.5 71.4v.2c-12.1 60.1 39.2 179.1 41.4 184.2 1.4 3.1 4.4 5.1 7.8 5.1h170.7c3.4 0 6.5-2 7.8-5.1 2.2-5.2 53.6-124.2 41.4-184.4.1.1 0 0 0 0zm-226.6-63.1c6.8-12.1 12.6-22.5 15.2-36.1 2.5-13.2.3-36.6-6.5-69.7-2.8-13.6-5.8-26-7.9-34.3h182.7c-2.1 8.3-5.1 20.7-7.9 34.3-6.8 33.1-9 56.5-6.5 69.7 2.5 13.6 8.4 24 15.2 36.1 8 14.2 16.9 30.1 23.4 56.2h-231c6.4-26.1 15.3-42 23.3-56.2zm83.6 235.4h-71.1c-4.2-10.1-13.8-34.1-22.4-62-12.2-39.2-18-71.2-17.2-93.8l110.8 74.9-.1 80.9zm-89.8-162.1h196.7l-98.3 66.5-98.4-66.5zm200.4 100.2c-8.7 27.8-18.2 51.8-22.4 62h-71.1v-80.8l110.8-74.9c.7 22.5-5.1 54.5-17.3 93.7z"/><path d="M55.2 153.1c-3.4 0-6.5-1.3-8.9-3.7-2.4-2.4-3.7-5.5-3.7-8.9s1.3-6.5 3.7-8.9l4.2-4.2h-38C5.6 127.5 0 121.9 0 115s5.6-12.5 12.5-12.5h38l-4.2-4.2c-2.4-2.4-3.7-5.5-3.7-8.9s1.3-6.5 3.7-8.9c2.4-2.4 5.5-3.7 8.9-3.7 3.4 0 6.5 1.3 8.9 3.7l25.6 25.6c4.2 4.2 4.9 10.8 1.6 15.8-.5.7-1 1.4-1.6 2L64 149.4c-2.3 2.4-5.5 3.7-8.8 3.7z"/><path d="M87.9 119.6c2.2-3.3 1.8-7.8-1.1-10.7L61.2 83.3c-3.3-3.3-8.7-3.3-12.1 0-3.3 3.3-3.3 8.7 0 12.1l11 11H12.5c-4.7 0-8.5 3.8-8.5 8.5s3.8 8.5 8.5 8.5h47.7l-11 11c-3.3 3.3-3.3 8.7 0 12.1 1.7 1.7 3.9 2.5 6 2.5 2.2 0 4.4-.8 6-2.5L86.8 121c.5-.4.8-.9 1.1-1.4zm274.5 33.5c-3.4 0-6.5-1.3-8.9-3.7l-25.6-25.6c-.6-.6-1.1-1.2-1.6-1.9-3.3-4.9-2.6-11.6 1.6-15.8l25.6-25.6c2.4-2.4 5.5-3.7 8.9-3.7s6.5 1.3 8.9 3.7c2.4 2.4 3.7 5.5 3.7 8.9 0 3.4-1.3 6.5-3.7 8.9l-4.2 4.2h38c6.9 0 12.5 5.6 12.5 12.5s-5.6 12.5-12.5 12.5h-38l4.2 4.2c2.4 2.4 3.7 5.5 3.7 8.9 0 3.4-1.3 6.5-3.7 8.9-2.4 2.3-5.5 3.6-8.9 3.6z"/><path d="M405.1 106.4h-47.7l11-11c3.3-3.3 3.3-8.7 0-12.1-3.3-3.3-8.7-3.3-12.1 0l-25.6 25.6c-2.9 2.9-3.3 7.4-1.1 10.7.3.5.7.9 1.1 1.3l25.6 25.6c1.7 1.7 3.8 2.5 6 2.5s4.4-.8 6-2.5c3.3-3.3 3.3-8.7 0-12.1l-11-11H405c4.7 0 8.5-3.8 8.5-8.5.1-4.7-3.7-8.5-8.4-8.5z"/></svg>