<?xml version="1.0" encoding="utf-8"?>
<!-- Generator: Adobe Illustrator 23.0.2, SVG Export Plug-In . SVG Version: 6.00 Build 0)  -->
<svg version="1.1" id="Isolation_Mode" xmlns="http://www.w3.org/2000/svg" xmlns:xlink="http://www.w3.org/1999/xlink" x="0px"
	 y="0px" viewBox="0 0 419.6 419.6" style="enable-background:new 0 0 419.6 419.6;" xml:space="preserve" fill="#fff">
<g>
	<path d="M209.8,419.6c-33.4,0-66.6-8-96.1-23.3l-96.7,22c-1,0.2-1.9,0.3-2.9,0.3c-3.5,0-6.9-1.4-9.3-3.9c-3.2-3.2-4.5-7.8-3.5-12.2
		L23.3,306C8,276.4,0,243.2,0,209.8c0-56,21.8-108.7,61.5-148.4C101.1,21.8,153.8,0,209.8,0s108.7,21.8,148.3,61.4
		c39.6,39.6,61.5,92.3,61.5,148.4s-21.8,108.7-61.5,148.4C318.5,397.8,265.8,419.6,209.8,419.6z M115.5,369.2c2.2,0,4.4,0.6,6.3,1.6
		c26.8,14.7,57.2,22.4,88,22.4c101.2,0,183.5-82.3,183.5-183.5S311,26.3,209.8,26.3S26.3,108.6,26.3,209.8c0,30.8,7.8,61.2,22.4,88
		c1.5,2.8,2,6.1,1.3,9.2l-18.5,81l81-18.5C113.5,369.3,114.5,369.2,115.5,369.2z"/>
	<path d="M354.6,65C315.9,26.3,264.5,5,209.8,5C155.1,5,103.7,26.3,65,65C26.3,103.7,5,155.1,5,209.8c0,33.3,8.1,66.2,23.6,95.5
		L6.1,403.7c-0.6,2.7,0.2,5.6,2.2,7.6c2,2,4.9,2.8,7.6,2.2l98.4-22.5c29.3,15.4,62.2,23.6,95.5,23.6c54.7,0,106.1-21.3,144.8-60
		c38.7-38.7,60-90.1,60-144.8S393.3,103.7,354.6,65L354.6,65z M209.8,398.3c-31.6,0-62.8-8-90.4-23c-1.2-0.7-2.6-1-3.9-1
		c-0.6,0-1.2,0.1-1.8,0.2l-88.8,20.3l20.3-88.8c0.4-1.9,0.2-4-0.8-5.7c-15.1-27.5-23.1-58.8-23.1-90.4
		c0-103.9,84.6-188.5,188.5-188.5s188.5,84.6,188.5,188.5C398.3,313.7,313.7,398.3,209.8,398.3L209.8,398.3z"/>
	<path d="M102.7,295.2c-5,0-9.5-3-11.4-7.6s-0.9-9.9,2.7-13.5l53.1-53.4h-44.3c-6.8,0-12.4-5.6-12.4-12.4s5.6-12.4,12.4-12.4h74.1
		c5,0,9.5,3,11.4,7.6s0.9,9.9-2.6,13.5l-53.1,53.4h44.3c6.8,0,12.4,5.6,12.4,12.4c0,6.8-5.6,12.4-12.4,12.4L102.7,295.2L102.7,295.2
		z"/>
	<path d="M176.8,275.5h-56.3l61.5-61.9c2.1-2.1,2.7-5.3,1.6-8c-1.1-2.8-3.8-4.5-6.8-4.5h-74.1c-4.1,0-7.4,3.3-7.4,7.4
		c0,4.1,3.3,7.4,7.4,7.4h56.3l-61.5,61.9c-2.1,2.1-2.7,5.3-1.6,8c1.1,2.8,3.8,4.5,6.8,4.5h74.1c4.1,0,7.4-3.3,7.4-7.4
		C184.2,278.8,180.9,275.5,176.8,275.5L176.8,275.5z"/>
	<path d="M218.6,248.3c-5.2,0-9.9-3.1-11.9-7.9c-2-4.8-0.9-10.3,2.8-14l75.1-75.5h-66c-7.1,0-12.9-5.8-12.9-12.9s5.8-12.9,12.9-12.9
		h96.9c5.2,0,9.9,3.1,11.9,7.9c2,4.8,0.9,10.3-2.8,14l-75.1,75.5h65.9c7.1,0,12.9,5.8,12.9,12.9s-5.8,12.9-12.9,12.9H218.6z"/>
	<path d="M315.5,227.5h-78l83.6-84c2.2-2.3,2.9-5.6,1.7-8.6s-4.1-4.9-7.3-4.9h-96.9c-4.4,0-7.9,3.5-7.9,7.9c0,4.4,3.5,7.9,7.9,7.9
		h78l-83.6,84c-2.2,2.3-2.9,5.6-1.7,8.6c1.2,2.9,4.1,4.9,7.3,4.9h96.9c4.3,0,7.9-3.5,7.9-7.9C323.4,231.1,319.8,227.5,315.5,227.5
		L315.5,227.5z"/>
	<path d="M271.1,349.8c-3.9,0-7.4-2.2-9.2-5.6c-2.6-5.1-0.5-11.3,4.5-13.8c20.5-10.4,37.3-26.6,48.4-46.8c1.8-3.3,5.3-5.3,9-5.3
		c1.7,0,3.4,0.4,4.9,1.3c2.4,1.3,4.2,3.5,4.9,6.1c0.8,2.6,0.5,5.4-0.9,7.8c-13.1,23.8-32.8,42.9-57.1,55.2
		C274.3,349.4,272.7,349.8,271.1,349.8z"/>
</g>
</svg>
