<?xml version="1.0" encoding="utf-8"?>
<!-- Generator: Adobe Illustrator 23.0.2, SVG Export Plug-In . SVG Version: 6.00 Build 0)  -->
<svg version="1.1" id="Layer_1" xmlns="http://www.w3.org/2000/svg" xmlns:xlink="http://www.w3.org/1999/xlink" x="0px" y="0px"
	 viewBox="0 0 23.4 20" style="enable-background:new 0 0 23.4 20;" xml:space="preserve" fill="#fff">
<g>
	<path d="M23.4,6.8c0,0.7-0.1,1.4-0.3,2.1c-1,4.9-9.6,10.7-9.9,11C13,20,12.9,20,12.7,20s-0.3,0-0.4-0.1c-0.1-0.1-2.5-1.7-5-4
		c-0.3-0.3-0.3-0.7-0.1-1.1c0.3-0.3,0.7-0.4,1-0.1c1.8,1.7,3.7,3.1,4.4,3.6c2.6-1.8,8.3-6.4,9-9.9C21.9,7.9,22,7.4,22,6.8
		c0-1.9-1-3.7-2.5-4.7c-2-1.2-4.7-0.6-6.2,1.3c-0.3,0.3-0.8,0.3-1.1,0C10.7,1.5,8,0.9,6,2.1C4.5,3.1,3.5,4.9,3.5,6.8
		c0,0.5,0.1,1.1,0.2,1.6c0.1,0.5,0.6,1.5,0.6,1.5h4.1l1.4-3.5c0.1-0.3,0.4-0.5,0.7-0.4c0.3,0,0.5,0.3,0.6,0.6l1,4.7l1.3-2.3
		c0.1-0.2,0.3-0.4,0.6-0.4h2.5c0.4,0,0.8,0.4,0.7,1c-0.1,0.3-0.4,0.6-0.7,0.6l-2.1,0l-2,3.5C12.3,13.8,12,14,11.8,14
		c0,0-0.1,0-0.1,0c-0.3,0-0.5-0.3-0.6-0.6l-0.9-4.3L9.5,11c-0.1,0.3-0.4,0.4-0.6,0.4H0.7c0,0-0.7-0.3-0.7-0.8s0.3-0.8,0.7-0.8h2
		C2.6,9.5,2.5,9.2,2.4,8.8c-0.2-0.6-0.3-1.3-0.3-2c0-2.5,1.2-4.8,3.3-6c2.3-1.4,5.4-1,7.4,1c1.9-2,5-2.4,7.4-1
		C22.1,2,23.4,4.3,23.4,6.8L23.4,6.8z"/>
</g>
</svg>
